<svg width="2679" height="2455" viewBox="0 0 2679 2455" fill="none" xmlns="http://www.w3.org/2000/svg">
<mask id="mask0_109_22" style="mask-type:luminance" maskUnits="userSpaceOnUse" x="0" y="0" width="2679" height="2455">
<path d="M1340.42 700.935C1367 751.51 1399.4 802.803 1428.45 852.382C1429.79 852.733 1431.13 853.087 1432.47 853.44C1391.05 877.356 1349.62 901.274 1308.2 925.19C1408.6 967.933 1509 1010.68 1609.41 1053.42C1709.81 1096.17 1810.22 1138.91 1910.62 1181.65C1923.8 1073.33 1936.99 965.006 1950.17 856.682C1963.35 748.358 1976.54 640.031 1989.73 531.707C1950.46 554.374 1911.2 577.045 1871.94 599.714C1790.06 435.89 1708.19 272.069 1626.32 108.248C1557.73 -29.1987 1186.67 -52.7727 1071.6 138.019C1071.6 138.019 683.716 817.627 647.266 880.761C794.599 965.825 941.934 1050.89 1089.26 1135.95L1340.42 700.935ZM2017.58 1799.26C1960.45 1800.14 1900.05 1805.88 1842.7 1809.4C1841.78 1810.43 1840.86 1811.47 1839.94 1812.51C1837.31 1764.75 1834.68 1716.99 1832.05 1669.23C1748.57 1739.5 1665.09 1809.78 1581.6 1880.06C1498.12 1950.33 1414.64 2020.61 1331.16 2090.89C1421.85 2151.57 1512.54 2212.26 1603.24 2272.94C1693.93 2333.63 1784.63 2394.31 1875.32 2455C1872.83 2409.73 1870.33 2364.46 1867.84 2319.19C2050.98 2320.13 2234.12 2321.07 2417.26 2322.01C2570.87 2322.89 2759.48 2002.48 2641.22 1813.64C2641.22 1813.64 2210.05 1160.64 2170.18 1099.61C2027.75 1192.64 1885.31 1285.68 1742.88 1378.71L2017.58 1799.26ZM326.258 1404.76C225.32 1557.57 124.386 1710.39 23.4506 1863.21C-61.2904 1991.33 103.821 2324.46 326.587 2328.72C326.587 2328.72 767.789 2326.53 1018.47 2325.43C1101.63 2325.07 1163.83 2324.83 1181.99 2324.83C1181.99 2154.71 1181.99 1984.58 1181.99 1814.45H679.676C710.183 1766.15 738.405 1712.44 766.824 1662.5C766.459 1661.16 766.095 1659.83 765.727 1658.49C807.153 1682.4 848.578 1706.32 890.001 1730.24C876.817 1621.91 863.632 1513.59 850.448 1405.26C837.264 1296.94 824.079 1188.61 810.895 1080.29C710.49 1123.03 610.086 1165.78 509.683 1208.52C409.278 1251.27 308.874 1294.01 208.469 1336.76C247.732 1359.42 286.996 1382.09 326.258 1404.76Z" fill="white"/>
</mask>
<g mask="url(#mask0_109_22)">
<path d="M2759.48 -52.7715H-61.2891V2455H2759.48V-52.7715Z" fill="url(#paint0_linear_109_22)"/>
</g>
<path fill-rule="evenodd" clip-rule="evenodd" d="M1609.41 1053.42C1709.81 1096.17 1810.22 1138.91 1910.62 1181.65C1923.8 1073.33 1936.99 965.007 1950.17 856.683C1963.36 748.359 1976.54 640.032 1989.73 531.708C1950.46 554.375 1911.2 577.046 1871.94 599.715C1564.74 247.956 1340.42 700.936 1340.42 700.936C1367 751.508 1399.4 802.804 1428.45 852.383C1429.79 852.734 1431.13 853.088 1432.47 853.441C1391.05 877.357 1349.62 901.275 1308.2 925.191C1408.6 967.934 1509.01 1010.68 1609.41 1053.42Z" fill="#106B60"/>
<path fill-rule="evenodd" clip-rule="evenodd" d="M890.001 1730.24C876.817 1621.91 863.632 1513.59 850.448 1405.26C837.264 1296.94 824.079 1188.61 810.895 1080.29C710.49 1123.03 610.086 1165.78 509.683 1208.52C409.278 1251.27 308.874 1294.01 208.469 1336.76C247.731 1359.42 286.995 1382.09 326.257 1404.76C175.226 1846.68 679.675 1814.45 679.675 1814.45C710.182 1766.15 738.404 1712.44 766.823 1662.5C766.458 1661.16 766.091 1659.82 765.726 1658.49C807.153 1682.4 848.577 1706.32 890.001 1730.24Z" fill="#106B60"/>
<path fill-rule="evenodd" clip-rule="evenodd" d="M1581.6 1880.06C1498.12 1950.33 1414.64 2020.61 1331.16 2090.89C1421.85 2151.57 1512.54 2212.26 1603.24 2272.94C1693.93 2333.63 1784.63 2394.31 1875.32 2455C1872.83 2409.73 1870.33 2364.46 1867.84 2319.2C1875.79 2319.24 1883.75 2319.28 1891.71 2319.32C2324.66 2189.83 2017.57 1799.26 2017.57 1799.26C1960.45 1800.14 1900.05 1805.88 1842.7 1809.4C1841.78 1810.44 1840.86 1811.47 1839.94 1812.51C1837.31 1764.75 1834.68 1716.99 1832.05 1669.23C1748.57 1739.5 1665.08 1809.78 1581.6 1880.06Z" fill="#106B60"/>
<path fill-rule="evenodd" clip-rule="evenodd" d="M647.266 880.761C647.266 880.761 1301.28 -116.351 1749.13 353.982C1708.19 272.069 1667.25 190.16 1626.31 108.248C1557.73 -29.1987 1186.67 -52.7727 1071.6 138.019C1071.6 138.019 683.716 817.628 647.266 880.761Z" fill="#ECF955"/>
<defs>
<linearGradient id="paint0_linear_109_22" x1="971.148" y1="2403.37" x2="1805.81" y2="-251.73" gradientUnits="userSpaceOnUse">
<stop stop-color="#009B90"/>
<stop offset="1" stop-color="#24BD29"/>
</linearGradient>
</defs>
</svg>
